<?xml version="1.0" encoding="UTF-8" standalone="no"?>
<svg width="302px" height="244px" viewBox="0 0 302 244" version="1.1" xmlns="http://www.w3.org/2000/svg" xmlns:xlink="http://www.w3.org/1999/xlink">
    <!-- Generator: Sketch 3.8.3 (29802) - http://www.bohemiancoding.com/sketch -->
    <title>Abstract Wireframe</title>
    <desc>Created with Sketch.</desc>
    <defs>
        <rect id="path-1" x="5.38923381" y="7.33638559" width="263.915366" height="197.525912"></rect>
        <filter x="-50%" y="-50%" width="200%" height="200%" filterUnits="objectBoundingBox" id="filter-3">
            <feOffset dx="0" dy="6" in="SourceAlpha" result="shadowOffsetOuter1"></feOffset>
            <feGaussianBlur stdDeviation="4" in="shadowOffsetOuter1" result="shadowBlurOuter1"></feGaussianBlur>
            <feColorMatrix values="0 0 0 0 0   0 0 0 0 0   0 0 0 0 0  0 0 0 0.75 0" type="matrix" in="shadowBlurOuter1"></feColorMatrix>
        </filter>
    </defs>
    <g id="Welcome" stroke="none" stroke-width="1" fill="none" fill-rule="evenodd">
        <g id="Design" transform="translate(-159.000000, -1319.000000)">
            <g id="User-Research-and-Product-Design-Sprint" transform="translate(28.000000, 813.000000)">
                <g id="Abstract-Wireframe" transform="translate(283.559243, 622.333304) rotate(4.000000) translate(-283.559243, -622.333304) translate(146.059243, 516.333304)">
                    <g id="Rectangle-79" transform="translate(-0.000000, 0.000000)">
                        <mask id="mask-2" fill="white">
                            <use xlink:href="#path-1"></use>
                        </mask>
                        <g id="Mask" transform="translate(137.346917, 106.099342) rotate(3.000000) translate(-137.346917, -106.099342) ">
                            <use fill="black" fill-opacity="1" filter="url(#filter-3)" xlink:href="#path-1"></use>
                            <use fill="#FFFFFF" fill-rule="evenodd" xlink:href="#path-1"></use>
                        </g>
                        <rect fill="#0D78DE" mask="url(#mask-2)" transform="translate(98.666537, 185.134495) rotate(1.000000) translate(-98.666537, -185.134495) " x="71.0123497" y="159.114581" width="55.3083747" height="52.0398277"></rect>
                    </g>
                    <rect id="Rectangle-79" fill="#28282D" transform="translate(41.981470, 17.918892) rotate(3.000000) translate(-41.981470, -17.918892) " x="22.7307658" y="12.036079" width="38.5014092" height="11.7656265"></rect>
                    <rect id="Rectangle-79" fill="#FF5773" transform="translate(97.491381, 117.055874) rotate(4.000000) translate(-97.491381, -117.055874) " x="72.8326155" y="96.0259053" width="49.3175302" height="42.0599371"></rect>
                    <rect id="Rectangle-80" fill="#E0E0E0" transform="translate(141.709407, 60.444104) rotate(3.000000) translate(-141.709407, -60.444104) " x="114.115208" y="58.5753094" width="55.1883982" height="3.73758854"></rect>
                    <rect id="Rectangle-80" fill="#E0E0E0" transform="translate(140.893684, 69.455879) rotate(3.000000) translate(-140.893684, -69.455879) " x="116.299018" y="67.5870846" width="49.1893322" height="3.73758854"></rect>
                    <rect id="Rectangle-80" fill="#E0E0E0" transform="translate(194.489008, 23.179169) rotate(3.000000) translate(-194.489008, -23.179169) " x="184.550945" y="21.3103749" width="19.8761251" height="3.73758854"></rect>
                    <rect id="Rectangle-80" fill="#E0E0E0" transform="translate(224.627458, 24.801147) rotate(3.000000) translate(-224.627458, -24.801147) " x="214.689396" y="22.9323531" width="19.8761251" height="3.73758854"></rect>
                    <rect id="Rectangle-80" fill="#E0E0E0" transform="translate(254.685570, 26.263448) rotate(3.000000) translate(-254.685570, -26.263448) " x="244.747507" y="24.3946535" width="19.8761251" height="3.73758854"></rect>
                    <rect id="Rectangle-80" fill="#E0E0E0" transform="translate(158.316611, 106.099342) rotate(3.000000) translate(-158.316611, -106.099342) " x="130.722411" y="104.230547" width="55.1883982" height="3.73758854"></rect>
                    <rect id="Rectangle-80" fill="#60D9BE" transform="translate(140.929596, 116.291501) rotate(3.000000) translate(-140.929596, -116.291501) " x="130.907348" y="112.884258" width="20.0444958" height="6.81448597"></rect>
                    <rect id="Rectangle-80" fill="#60D9BE" transform="translate(148.531831, 178.645677) rotate(3.000000) translate(-148.531831, -178.645677) " x="138.509583" y="175.238434" width="20.0444958" height="6.81448597"></rect>
                    <rect id="Rectangle-80" fill="#E0E0E0" transform="translate(163.003762, 168.442435) rotate(3.000000) translate(-163.003762, -168.442435) " x="138.409096" y="166.57364" width="49.1893322" height="3.73758854"></rect>
                </g>
            </g>
        </g>
    </g>
</svg>