<svg xmlns="http://www.w3.org/2000/svg" width="204" height="255" viewBox="0 0 204 255">
  <g fill="none" fill-rule="evenodd" stroke="#000" stroke-width="9" transform="translate(4 5)">
    <g transform="translate(33)">
      <polyline points="162.4 6 162.4 0 156.4 0"/>
      <path stroke-dasharray="11.572 11.572" d="M144.8,0 L11.8,0"/>
      <polyline points="6 0 0 0 0 6"/>
      <path stroke-dasharray="6.377 6.377" d="M0,12.4 L0,21.9"/>
      <polyline points="0 25.1 0 31.1 6 31.1"/>
      <path stroke-dasharray="13.105 13.105" d="M19.1,31.1 L117.4,31.1"/>
      <polyline points="123.9 31.1 129.9 31.1 129.9 37.1"/>
      <path stroke-dasharray="11.382 11.382" d="M129.9,48.5 L129.9,202.2"/>
      <polyline points="129.9 207.9 129.9 213.9 135.9 213.9"/>
      <path stroke-dasharray="6.829 6.829" d="M142.8,213.9 L153,213.9"/>
      <polyline points="157.4 213.9 162.4 213.9 162.4 208.9"/>
      <path stroke-dasharray="11.874 11.874" d="M162.4,196 L162.4,11.9"/>
    </g>
    <g transform="translate(0 31)">
      <polyline points="33 4.4 33 .1 27 .1"/>
      <path stroke-dasharray="6.829 6.829" d="M20.2,0.1 L9.9,0.1"/>
      <polyline points="6.5 .1 .5 .1 .5 6.1"/>
      <path stroke-dasharray="11.875 11.875" d="M0.5,18 L0.5,202.1"/>
      <polyline points=".5 208 .5 214 6.5 214"/>
      <path stroke-dasharray="11.572 11.572" d="M18.1,214 L151.1,214"/>
      <polyline points="156.9 214 162.9 214 162.9 208"/>
      <path stroke-dasharray="6.378 6.378" d="M162.9,201.6 L162.9,192.1"/>
      <polyline points="162.9 188.9 162.9 182.9 159.5 182.9"/>
    </g>
  </g>
</svg>
