<svg xmlns="http://www.w3.org/2000/svg" viewBox="0 0 74.07 46.51"><defs><style>.cls-1{fill:#5da2ff;}.cls-2{fill:#dce9f4;}.cls-3{fill:#ffe699;}.cls-4{opacity:0.5;}.cls-5{fill:#2cc2db;}.cls-6{fill:#ccd6db;}.cls-7{fill:#2f302f;}</style></defs><title>design-system</title><g id="Warstwa_2" data-name="Warstwa 2"><g id="_2" data-name="2"><rect class="cls-1" x="20.03" y="5.2" width="10.67" height="10.67" rx="1.01" ry="1.01"/><rect class="cls-2" x="20.03" y="19.52" width="10.67" height="10.67" rx="1.01" ry="1.01"/><rect class="cls-3" x="20.03" y="33.84" width="10.67" height="10.67" rx="1.01" ry="1.01"/><g class="cls-4"><path class="cls-5" d="M55.9,33.33l-1.38-3.61H45.88l-1.38,3.61H40.74l7.4-18.83h4.12l7.4,18.83Zm-5.7-15.5-3.39,9h6.78Z"/></g><path d="M57.83,31.75H53.17l-1.38-3.61H43.73l-1.38,3.61H37.69l7.72-19.67H50.1Zm-4.08-.84H56.6l-7.07-18H46l-7.07,18h2.85l1.38-3.61h9.21Zm-2-5.68h-8l4-10.58ZM45,24.39h5.57L47.76,17Z"/><path class="cls-6" d="M8.33,7.67H.42A.42.42,0,0,1,.06,7L4,.19a.44.44,0,0,1,.72,0L8.69,7a.42.42,0,0,1-.36.63ZM1.14,6.83H7.6L4.37,1.24Z"/><path class="cls-6" d="M7.25,46.51a1,1,0,0,1-.76-.37L3.2,41.9a1,1,0,0,1,.17-1.34l4.24-3.29A1,1,0,0,1,9,37.44l3.29,4.24A1,1,0,0,1,12.07,43L7.83,46.31h0A1,1,0,0,1,7.25,46.51ZM7.57,46h0Zm.62-8.07-.07,0L3.89,41.22a.12.12,0,0,0,0,.17l3.29,4.24a.12.12,0,0,0,.17,0l4.24-3.29,0-.16L8.29,38A.11.11,0,0,0,8.2,37.91Z"/><path class="cls-6" d="M57.3,43.51a.42.42,0,0,1-.21-.78l5.57-3.18a.42.42,0,1,1,.42.73l-5.57,3.18A.42.42,0,0,1,57.3,43.51Z"/><path class="cls-6" d="M61.68,44.7a.42.42,0,0,1-.36-.21l-3.18-5.57a.42.42,0,0,1,.73-.42L62,44.08a.42.42,0,0,1-.16.57A.42.42,0,0,1,61.68,44.7Z"/><path class="cls-6" d="M70.25,13.43a3.83,3.83,0,1,1,3.83-3.83A3.83,3.83,0,0,1,70.25,13.43Zm0-6.82a3,3,0,1,0,3,3A3,3,0,0,0,70.25,6.62Z"/><path class="cls-7" d="M27.42,14.69h-7.3a2.11,2.11,0,0,1-2.1-2.1V5.29a2.11,2.11,0,0,1,2.1-2.1h7.3a2.11,2.11,0,0,1,2.1,2.1v7.3A2.11,2.11,0,0,1,27.42,14.69ZM20.12,4a1.27,1.27,0,0,0-1.27,1.27v7.3a1.27,1.27,0,0,0,1.27,1.27h7.3a1.27,1.27,0,0,0,1.27-1.27V5.29A1.27,1.27,0,0,0,27.42,4Z"/><path class="cls-7" d="M27.42,29h-7.3a2.11,2.11,0,0,1-2.1-2.1v-7.3a2.11,2.11,0,0,1,2.1-2.1h7.3a2.11,2.11,0,0,1,2.1,2.1v7.3A2.11,2.11,0,0,1,27.42,29Zm-7.3-10.67a1.27,1.27,0,0,0-1.27,1.27v7.3a1.27,1.27,0,0,0,1.27,1.27h7.3a1.27,1.27,0,0,0,1.27-1.27v-7.3a1.27,1.27,0,0,0-1.27-1.27Z"/><path class="cls-7" d="M27.42,43.37h-7.3a2.11,2.11,0,0,1-2.1-2.1V34a2.11,2.11,0,0,1,2.1-2.1h7.3a2.11,2.11,0,0,1,2.1,2.1v7.3A2.11,2.11,0,0,1,27.42,43.37ZM20.12,32.7A1.27,1.27,0,0,0,18.86,34v7.3a1.27,1.27,0,0,0,1.27,1.27h7.3a1.27,1.27,0,0,0,1.27-1.27V34a1.27,1.27,0,0,0-1.27-1.27Z"/></g></g></svg>