<svg class="h-13" xmlns="http://www.w3.org/2000/svg" viewBox="0 0 165 50">
            <title>Refactoring UI</title>
            <defs><linearGradient id="a" x1="50%" x2="50%" y1="0%" y2="100%"><stop stop-color="#40B1F3" offset="0%"></stop><stop stop-color="#5A77F3" offset="100%"></stop></linearGradient></defs><g fill="none" fill-rule="evenodd" transform="translate(1)"><path fill="url(#a)" fill-rule="nonzero" d="M119.35 41.27A24.68 24.68 0 0 0 138.19 50 24.9 24.9 0 0 0 163 25c0-13.8-11.1-25-24.81-25A24.83 24.83 0 0 0 115 16.08c.68-.3 1.46-.49 2.36-.52A22.83 22.83 0 0 1 138.2 2C150.79 2 161 12.3 161 25S150.8 48 138.2 48a22.7 22.7 0 0 1-17.2-7.87 8.9 8.9 0 0 1-1.64 1.14z"></path><path fill="#40464C" d="M11.72 21.29c0 2.16-1.3 3.74-3.02 4.3v.04L12.34 33H8.82l-3.03-6.53H3.7V33H.5V16.75c1.32-.12 3.02-.21 4.8-.21 4.32 0 6.43 1.53 6.43 4.75zM3.7 19.15v4.83h1.83c1.73 0 2.88-.94 2.88-2.48 0-1.84-1.1-2.42-2.93-2.42-.8 0-1.37.05-1.78.07zm15.68 14.09c-3.82 0-5.96-2.2-5.96-5.98 0-3.45 1.92-6.33 5.84-6.33 3.98 0 5.47 3.36 4.8 6.98h-7.44c.07 2.07 1.48 2.88 3.28 2.88 1.3 0 2.45-.24 3.41-.57l.29 2.3c-1.13.46-2.66.72-4.22.72zm-2.72-7.56h4.5c.02-.05.02-.2.02-.24 0-.98-.46-2.2-2.12-2.2-1.46 0-2.25 1.17-2.4 2.44zm10.2-4.49v-.96c0-2.95 1.54-4.92 4.37-4.92.67 0 1.42.07 1.92.17l-.29 2.5a4.13 4.13 0 0 0-.81-.08c-1.54 0-1.97.96-1.97 2.24v1.05h2.47l-.17 2.38H30.1V33h-3.24v-9.43h-1.5l.16-2.23 1.34-.15zm16.85 3.67v5.33c0 1.03.03 2.04.12 2.81h-2.37l-.72-1.37h-.08a4.37 4.37 0 0 1-3.52 1.61c-2.14 0-3.56-1.56-3.56-3.36 0-2.62 1.66-3.43 4.06-3.43h2.83v-1.18c0-1.03-.29-1.8-2.13-1.8-1.47 0-2.57.39-3.48.77l-.53-2.4c1.03-.43 2.76-.91 4.6-.91 3.56 0 4.78 1.25 4.78 3.93zm-5.37 6.12c.84 0 2.01-.55 2.18-1.44v-1.2h-2.11c-.8 0-1.61.08-1.61 1.25 0 .96.67 1.4 1.54 1.4zm10.94-3.88c0 2.52 1.51 3.6 3.31 3.6 1.06 0 2.02-.2 2.71-.48l.3 2.42c-.85.34-2.26.6-3.66.6-3.62 0-6-2.18-6-6.07 0-3.63 2.33-6.22 6.48-6.22 1.06 0 2.3.2 3.17.55l-.36 2.45a7 7 0 0 0-2.66-.5c-2.02 0-3.29 1.27-3.29 3.65zm8.86 1.72v-5.25h-1.52l.15-2.28 1.51-.1.22-2.69 2.85-.6v3.3h2.76l-.17 2.37h-2.59v4.97c0 1.6.7 2.01 1.68 2.01.41 0 .72-.05 1.03-.12l.03 2.45c-.5.2-1.56.36-2.55.36-2.44 0-3.4-1.32-3.4-4.42zm19.32-1.68c0 4.2-2.88 6.12-5.96 6.12-3.07 0-5.95-1.87-5.95-6.12 0-4.44 2.88-6.21 5.95-6.21 3.08 0 5.96 1.8 5.96 6.21zm-3.36-.04c0-2.57-.99-3.77-2.6-3.77-1.6 0-2.59 1.2-2.59 3.77 0 2.56.99 3.76 2.6 3.76 1.6 0 2.59-1.2 2.59-3.76zm12.43-6.12v2.95c-1.47-.39-2.86-.1-3.65 1.32V33h-3.24v-7.97c0-1.51-.05-2.71-.07-3.84l2.8-.1.25 2.05h.04c.77-1.42 2.16-2.36 3.87-2.16zM88.4 33V21.2l3.24-.1V33H88.4zm-.17-15.65c0-.98.8-1.8 1.78-1.8 1 0 1.8.82 1.8 1.8 0 1.01-.8 1.78-1.8 1.78-.99 0-1.78-.77-1.78-1.78zm13.08 3.58c2.64 0 4.03 1.77 4.03 4.97V33h-3.26v-6.84c0-1.56-.4-2.6-1.78-2.6a3 3 0 0 0-2.56 1.6V33H94.5v-8.18c0-1.35-.03-2.52-.08-3.63l2.81-.1.22 1.61h.07a5.06 5.06 0 0 1 3.8-1.77zm16.56 4.49c0 2.68-2.5 4.36-4.99 4.36-.86 0-1.56-.14-2.16-.4-.24.33-.43.67-.38 1 .02.41.33.72 1.1.77 4.46.34 7.66.39 7.73 3.31.05 1.83-1.4 4.37-7.08 4.32-1.08 0-5.3-.24-5.26-3.52.03-.94.77-1.97 1.85-2.52v-.05a1.8 1.8 0 0 1-.72-1.51c0-.84.65-1.76 1.51-2.48v-.04a4 4 0 0 1-1.68-3.24c0-2.76 2.21-4.5 5.04-4.5.87 0 1.92.2 2.57.56.02-.8.31-1.92 1.87-1.92h1.92v2.06h-1.75c-.34 0-.89.15-.91.63a4.1 4.1 0 0 1 1.34 3.17zm-7.03 0c0 1.82 1 2.35 2 2.35.93 0 1.96-.53 1.96-2.35 0-1.83-1-2.36-1.97-2.36-.98 0-1.99.53-1.99 2.36zm.5 8.01c-.4-.02-.76-.07-1.03-.17-.5.36-.77.82-.77 1.28 0 1.36 1.73 1.6 2.74 1.63 3.67.1 4.13-1.18 4.08-1.73-.05-.72-2.04-.91-5.02-1zm22.3-.19c-3.98 0-6.26-2.16-6.26-6.8v-9.83h3.26v10c0 2.53 1.1 3.99 3.07 3.99 2.07 0 3.15-1.34 3.15-3.98V16.6h3.26v9.33c0 4.83-2.06 7.3-6.48 7.3zm12.62-16.63V33H143V16.6h3.26z"></path></g>
        </svg>
