<svg xmlns="http://www.w3.org/2000/svg" viewBox="0 0 273 191">
  <g fill="none">
    <path fill="#009DDC" d="M113.3,20.8 C122,11.6 134.3,6 147.8,6 C165.8,6 181.4,16 189.8,30.9 C197.1,27.7 205.1,25.9 213.5,25.9 C245.9,25.9 272.2,52.4 272.2,85.1 C272.2,117.8 245.9,144.3 213.5,144.3 C209.5,144.3 205.7,143.9 201.9,143.1 C194.6,156.2 180.5,165.1 164.5,165.1 C157.8,165.1 151.4,163.5 145.7,160.8 C138.2,178.3 120.9,190.6 100.7,190.6 C79.6,190.6 61.7,177.3 54.8,158.6 C51.8,159.2 48.7,159.6 45.5,159.6 C20.3,159.4 0,138.9 0,113.5 C0,96.5 9.1,81.7 22.7,73.7 C19.9,67.3 18.4,60.2 18.4,52.7 C18.4,23.6 42,0 71.2,0 C88.4,0 103.6,8.1 113.3,20.8 Z"/>
    <path fill="#FFF" d="M39.4 98.8C39.2 99.2 39.5 99.3 39.5 99.4 40 99.8 40.5 100 41.1 100.3 43.9 101.8 46.5 102.2 49.2 102.2 54.8 102.2 58.3 99.2 58.3 94.5L58.3 94.4C58.3 90 54.4 88.4 50.7 87.2L50.2 87C47.4 86.1 45 85.3 45 83.5L45 83.4C45 81.8 46.4 80.7 48.6 80.7 51 80.7 53.9 81.5 55.7 82.5 55.7 82.5 56.2 82.8 56.4 82.3 56.5 82 57.4 79.5 57.5 79.2 57.6 78.9 57.4 78.7 57.2 78.6 55.1 77.3 52.2 76.5 49.2 76.5L48.6 76.5C43.5 76.5 39.9 79.6 39.9 84L39.9 84.1C39.9 88.8 43.8 90.3 47.5 91.3L48.1 91.5C50.8 92.3 53.1 93 53.1 94.9L53.1 95C53.1 96.7 51.6 98 49.2 98 48.3 98 45.3 98 42 95.9 41.6 95.7 41.4 95.5 41.1 95.3 40.9 95.2 40.5 95 40.4 95.6L39.4 98.8 39.4 98.8zM121.2 98.8C121 99.2 121.3 99.3 121.3 99.4 121.8 99.8 122.3 100 122.9 100.3 125.7 101.8 128.3 102.2 131 102.2 136.6 102.2 140.1 99.2 140.1 94.5L140.1 94.4C140.1 90 136.2 88.4 132.5 87.2L132 87C129.2 86.1 126.8 85.3 126.8 83.5L126.8 83.4C126.8 81.8 128.2 80.7 130.4 80.7 132.8 80.7 135.7 81.5 137.5 82.5 137.5 82.5 138 82.8 138.2 82.3 138.3 82 139.2 79.5 139.3 79.2 139.4 78.9 139.2 78.7 139 78.6 136.9 77.3 134 76.5 131 76.5L130.4 76.5C125.3 76.5 121.7 79.6 121.7 84L121.7 84.1C121.7 88.8 125.6 90.3 129.3 91.3L129.9 91.5C132.6 92.3 134.9 93 134.9 94.9L134.9 95C134.9 96.7 133.4 98 131 98 130.1 98 127.1 98 123.8 95.9 123.4 95.7 123.2 95.5 122.9 95.3 122.8 95.2 122.3 95.1 122.2 95.6L121.2 98.8 121.2 98.8zM181.6 84.4C181.1 82.9 180.4 81.5 179.5 80.4 178.5 79.3 177.3 78.3 175.9 77.7 174.5 77 172.8 76.7 170.9 76.7 169 76.7 167.3 77 165.9 77.7 164.5 78.4 163.3 79.3 162.3 80.4 161.4 81.5 160.6 82.9 160.2 84.4 159.7 85.9 159.5 87.6 159.5 89.4 159.5 91.2 159.7 92.9 160.2 94.4 160.7 95.9 161.4 97.3 162.3 98.4 163.3 99.5 164.5 100.5 165.9 101.1 167.3 101.7 169 102.1 170.9 102.1 172.8 102.1 174.5 101.8 175.9 101.1 177.3 100.5 178.5 99.5 179.5 98.4 180.4 97.3 181.2 95.9 181.6 94.4 182.1 92.9 182.3 91.2 182.3 89.4 182.3 87.6 182.1 86 181.6 84.4L181.6 84.4zM176.9 89.4C176.9 92.1 176.4 94.2 175.4 95.7 174.4 97.2 172.9 97.9 170.9 97.9 168.8 97.9 167.4 97.2 166.4 95.7 165.4 94.2 164.9 92.1 164.9 89.4 164.9 86.7 165.4 84.6 166.4 83.1 167.4 81.6 168.8 80.9 170.9 80.9 173 80.9 174.5 81.6 175.4 83.1 176.4 84.6 176.9 86.7 176.9 89.4L176.9 89.4zM219.9 97.3C219.7 96.8 219.3 97 219.3 97 218.6 97.3 217.9 97.5 217.1 97.6 216.3 97.7 215.5 97.8 214.5 97.8 212.2 97.8 210.5 97.1 209.2 95.8 207.9 94.5 207.2 92.3 207.2 89.4 207.2 86.8 207.8 84.8 209 83.3 210.1 81.8 211.9 81 214.2 81 216.1 81 217.6 81.2 219.1 81.7 219.1 81.7 219.5 81.9 219.6 81.4 220 80.3 220.3 79.5 220.7 78.2 220.8 77.8 220.5 77.7 220.4 77.7 219.8 77.5 218.4 77.1 217.3 76.9 216.3 76.7 215.1 76.7 213.8 76.7 211.8 76.7 210.1 77 208.6 77.7 207.1 78.4 205.8 79.3 204.8 80.4 203.8 81.5 203 82.9 202.5 84.4 202 85.9 201.7 87.6 201.7 89.4 201.7 93.3 202.7 96.4 204.8 98.7 206.9 101 210 102.2 214 102.2 216.4 102.2 218.8 101.7 220.6 101 220.6 101 220.9 100.8 220.8 100.4L219.9 97.3 219.9 97.3zM243.7 83.5C243.3 82 242.3 80.5 241.7 79.8 240.7 78.7 239.7 77.9 238.7 77.5 237.4 76.9 235.9 76.6 234.2 76.6 232.2 76.6 230.4 76.9 229 77.6 227.5 78.3 226.3 79.2 225.4 80.4 224.4 81.6 223.7 82.9 223.3 84.5 222.8 86.1 222.6 87.7 222.6 89.5 222.6 91.3 222.8 93 223.3 94.5 223.8 96 224.5 97.4 225.6 98.5 226.6 99.6 228 100.5 229.6 101.1 231.2 101.7 233.1 102 235.3 102 239.9 102 242.3 101 243.2 100.4 243.4 100.3 243.5 100.1 243.3 99.6L242.3 96.7C242.1 96.3 241.7 96.4 241.7 96.4 240.6 96.8 239 97.6 235.2 97.6 232.8 97.6 230.9 96.9 229.8 95.7 228.6 94.5 228.1 92.8 228 90.5L243.8 90.5C243.8 90.5 244.2 90.5 244.3 90.1 244.2 90.2 244.7 87.1 243.7 83.5L243.7 83.5zM228 86.8C228.2 85.3 228.6 84.1 229.3 83.1 230.3 81.6 231.7 80.8 233.8 80.8 235.9 80.8 237.2 81.6 238.2 83.1 238.9 84.1 239.1 85.4 239.2 86.8L228 86.8zM117.4 83.5C117 82 116 80.5 115.4 79.8 114.4 78.7 113.4 77.9 112.4 77.5 111.1 76.9 109.6 76.6 107.9 76.6 105.9 76.6 104.1 76.9 102.7 77.6 101.2 78.3 100 79.2 99.1 80.4 98.1 81.6 97.4 82.9 97 84.5 96.5 86.1 96.3 87.7 96.3 89.5 96.3 91.3 96.5 93 97 94.5 97.5 96 98.2 97.4 99.3 98.5 100.3 99.6 101.7 100.5 103.3 101.1 104.9 101.7 106.8 102 109 102 113.6 102 116 101 116.9 100.4 117.1 100.3 117.2 100.1 117 99.6L116 96.7C115.8 96.3 115.4 96.4 115.4 96.4 114.3 96.8 112.7 97.6 108.9 97.6 106.5 97.6 104.6 96.9 103.5 95.7 102.3 94.5 101.8 92.8 101.7 90.5L117.5 90.5C117.5 90.5 117.9 90.5 118 90.1 117.9 90.2 118.4 87.1 117.4 83.5L117.4 83.5zM101.7 86.8C101.9 85.3 102.3 84.1 103 83.1 104 81.6 105.4 80.8 107.5 80.8 109.6 80.8 110.9 81.6 111.9 83.1 112.5 84.1 112.8 85.4 112.9 86.8L101.7 86.8zM73.9 86.1C73.3 86.1 72.4 86 71.4 86 70 86 68.7 86.2 67.5 86.5 66.3 86.8 65.2 87.3 64.2 88 63.2 88.7 62.5 89.6 61.9 90.6 61.3 91.6 61.1 92.9 61.1 94.2 61.1 95.6 61.3 96.8 61.8 97.8 62.3 98.8 63 99.6 63.9 100.3 64.8 100.9 65.9 101.4 67.1 101.7 68.3 102 69.7 102.1 71.3 102.1 72.9 102.1 74.5 102 76.1 101.7 77.6 101.4 79.5 101.1 80.1 100.9 80.6 100.8 81.2 100.6 81.2 100.6 81.6 100.5 81.6 100.1 81.6 100.1L81.6 85.7C81.6 82.5 80.8 80.2 79.1 78.7 77.4 77.3 75 76.5 71.9 76.5 70.7 76.5 68.8 76.7 67.7 76.9 67.7 76.9 64.3 77.6 62.8 78.7 62.8 78.7 62.5 78.9 62.7 79.3L63.8 82.3C63.9 82.7 64.3 82.6 64.3 82.6 64.3 82.6 64.4 82.6 64.6 82.5 67.6 80.9 71.5 80.9 71.5 80.9 73.2 80.9 74.5 81.2 75.4 81.9 76.3 82.6 76.7 83.6 76.7 85.7L76.7 86.4C75.1 86.2 73.9 86.1 73.9 86.1L73.9 86.1zM67.6 97.2C67 96.7 66.9 96.6 66.7 96.3 66.4 95.8 66.2 95.1 66.2 94.2 66.2 92.8 66.7 91.8 67.6 91.1 67.6 91.1 69 89.9 72.2 90 74.5 90 76.5 90.4 76.5 90.4L76.5 97.6C76.5 97.6 74.5 98 72.2 98.2 69 98.3 67.6 97.2 67.6 97.2L67.6 97.2z"/>
    <path fill="#FFF" d="M201.1,78 C201.2,77.6 201,77.5 200.9,77.4 C200.6,77.3 199.3,77 198.3,77 C196.3,76.9 195.2,77.2 194.2,77.7 C193.2,78.1 192.1,78.9 191.5,79.7 L191.5,77.8 C191.5,77.5 191.3,77.3 191,77.3 L187,77.3 C186.7,77.3 186.5,77.5 186.5,77.8 L186.5,101.3 C186.5,101.6 186.7,101.8 187,101.8 L191.1,101.8 C191.4,101.8 191.6,101.6 191.6,101.3 L191.6,89.4 C191.6,87.8 191.8,86.2 192.1,85.3 C192.4,84.3 192.9,83.5 193.5,83 C194.1,82.4 194.7,82 195.4,81.8 C196.1,81.6 196.9,81.5 197.5,81.5 C198.3,81.5 199.2,81.7 199.2,81.7 C199.5,81.7 199.7,81.5 199.8,81.3 C200.2,80.5 201,78.4 201.1,78 L201.1,78 Z M162.2,67 C161.7,66.8 161.2,66.7 160.6,66.6 C160,66.5 159.3,66.4 158.5,66.4 C155.6,66.4 153.4,67.2 151.8,68.8 C150.2,70.4 149.2,72.8 148.6,76 L148.4,77.1 L144.8,77.1 C144.8,77.1 144.4,77.1 144.3,77.6 L143.7,80.9 C143.7,81.2 143.8,81.4 144.2,81.4 L147.7,81.4 L144.2,101.1 C143.9,102.7 143.6,104 143.3,105 C143,106 142.6,106.7 142.2,107.2 C141.8,107.7 141.4,108.1 140.8,108.3 C140.3,108.5 139.6,108.6 138.9,108.6 C138.5,108.6 138,108.5 137.6,108.5 C137.2,108.4 137,108.3 136.7,108.2 C136.7,108.2 136.3,108 136.1,108.5 C136,108.8 135,111.4 134.9,111.7 C134.8,112 134.9,112.3 135.1,112.3 C135.6,112.5 135.9,112.6 136.5,112.7 C137.4,112.9 138.1,112.9 138.8,112.9 C140.3,112.9 141.6,112.7 142.7,112.3 C143.8,111.9 144.8,111.2 145.6,110.3 C146.5,109.3 147.1,108.2 147.6,106.8 C148.1,105.4 148.6,103.6 149,101.5 L152.6,81.4 L157.8,81.4 C157.8,81.4 158.2,81.4 158.3,80.9 L158.9,77.6 C158.9,77.3 158.8,77.1 158.4,77.1 L153.4,77.1 C153.4,77 153.7,75.2 154.2,73.5 C154.4,72.8 154.9,72.2 155.3,71.8 C155.7,71.4 156.1,71.1 156.6,71 C157.1,70.8 157.7,70.8 158.3,70.8 C158.8,70.8 159.2,70.9 159.6,70.9 C160.1,71 160.3,71.1 160.4,71.1 C160.9,71.3 161,71.1 161.1,70.9 L162.3,67.6 C162.6,67.2 162.3,67.1 162.2,67 L162.2,67 Z M91.7,101.2 C91.7,101.5 91.5,101.7 91.2,101.7 L87,101.7 C86.7,101.7 86.5,101.5 86.5,101.2 L86.5,67.5 C86.5,67.2 86.7,67 87,67 L91.2,67 C91.5,67 91.7,67.2 91.7,67.5 L91.7,101.2 L91.7,101.2 Z"/>
  </g>
</svg>
