<svg xmlns="http://www.w3.org/2000/svg" viewBox="0 0 96 131">
  <g fill="none">
    <circle cx="48.2" cy="18.6" r="18.6" fill="#010101"/>
    <path fill="#64B1BC" d="M24.9,49.5 C21.8,43.3 21.7,36.7 21.6,36.4 L21.6,10.7 L0,10.7 L0,36.4 C0,37.5 0.1,47.7 5.1,58.2 C7.4,63.2 10.5,67.4 14.1,70.8 C21.5,63.8 31.5,60 43.2,60 C34.3,60 28.5,56.6 24.9,49.5 Z"/>
    <path fill="#2BACE2" d="M43.2,81.7 L52,81.7 L43.2,81.7 Z M52.1,60 L43.3,60 L52.1,60 L52.1,60 Z"/>
    <path fill="#64B1BC" d="M70.4,92.2 C73.5,98.4 73.6,105 73.7,105.3 L73.7,131 L95.4,131 L95.4,105.3 C95.4,104.2 95.3,94 90.3,83.5 C88,78.5 84.9,74.3 81.3,70.9 C73.9,77.9 63.9,81.7 52.2,81.7 C61,81.7 66.8,85 70.4,92.2 Z"/>
    <path fill="#682666" d="M73.7,10.7 L73.7,36.4 C73.7,36.5 73.6,42.9 70.7,49 C67.2,56.5 61.3,60 52.2,60 L43.4,60 C31.7,60 21.7,63.8 14.3,70.8 C10.7,74.2 7.6,78.4 5.3,83.4 C0.1,93.9 0,104.1 0,105.3 L0,131 L21.7,131 L21.7,105.3 C21.7,105.2 21.8,98.8 24.7,92.7 C28.2,85.2 34.1,81.7 43.2,81.7 L52,81.7 C63.7,81.7 73.7,77.9 81.1,70.9 C84.7,67.5 87.8,63.3 90.1,58.3 C95,47.8 95.2,37.6 95.2,36.5 L95.2,10.7 L73.7,10.7 Z"/>
  </g>
</svg>
