<svg xmlns="http://www.w3.org/2000/svg" viewBox="0 0 45.64 43.91"><defs><style>.cls-1{isolation:isolate;}.cls-2{fill:#2f3030;}.cls-3{fill:none;}.cls-4{fill:#fff;}.cls-5{fill:#d5dee4;mix-blend-mode:multiply;}</style></defs><title>automated-dev-handoff</title><g class="cls-1"><g id="Warstwa_2" data-name="Warstwa 2"><g id="_2" data-name="2"><path class="cls-2" d="M26.38,29a2.58,2.58,0,1,1,1.42-4.73,2.5,2.5,0,0,1,.4.33,2.43,2.43,0,0,1,.27.33A2.57,2.57,0,0,1,26.38,29Zm0-4.43a1.85,1.85,0,1,0,1.31.54A1.84,1.84,0,0,0,26.38,24.53Z"/><g id="_grupa_" data-name="&lt;grupa&gt;"><polygon id="_ścieżka_" data-name="&lt;ścieżka&gt;" class="cls-3" points="13.4 21.82 13.05 21.46 7.45 21.46 7.45 31.77 13.88 31.77 13.88 22.29 13.4 21.82"/><path id="_ścieżka_2" data-name="&lt;ścieżka&gt;" class="cls-3" d="M30.45,22l.08.1.3.28c.14.14.27.28.39.44l.16.21.19.26.16.26.05.08v-2H30Z"/><rect id="_ścieżka_3" data-name="&lt;ścieżka&gt;" class="cls-3" x="21.46" y="0.79" width="10.31" height="5.86"/><polygon id="_ścieżka_4" data-name="&lt;ścieżka&gt;" class="cls-3" points="21.46 13.05 21.82 13.4 22.29 13.88 31.77 13.88 31.77 7.45 21.46 7.45 21.46 13.05"/><rect id="_ścieżka_5" data-name="&lt;ścieżka&gt;" class="cls-3" x="5.27" y="7.5" width="10.31" height="5.86" transform="translate(-4.32 10.43) rotate(-45)"/><path id="_ścieżka_6" data-name="&lt;ścieżka&gt;" class="cls-3" d="M23.66,31.77l-.08-.05-.26-.16-.26-.19-.21-.16q-.23-.19-.44-.39l-.28-.3-.1-.08-.4-.4v1.72Z"/><rect id="_ścieżka_7" data-name="&lt;ścieżka&gt;" class="cls-3" x="0.79" y="21.46" width="5.86" height="10.31"/><polygon id="_ścieżka_8" data-name="&lt;ścieżka&gt;" class="cls-3" points="14.67 23.09 14.67 31.77 20.84 31.77 20.84 29.25 18.89 27.3 18.33 26.74 14.67 23.09"/><polygon id="_ścieżka_9" data-name="&lt;ścieżka&gt;" class="cls-3" points="26.74 18.33 27.3 18.89 29.25 20.84 31.77 20.84 31.77 14.67 23.09 14.67 26.74 18.33"/><path id="_ścieżka_10" data-name="&lt;ścieżka&gt;" class="cls-2" d="M.79,31.77V21.46H6.65v-.79H.53a.53.53,0,0,0-.53.53V32a.53.53,0,0,0,.53.53H6.65v-.79Z"/><rect id="_ścieżka_11" data-name="&lt;ścieżka&gt;" class="cls-2" x="7.45" y="31.77" width="6.43" height="0.79"/><polygon id="_ścieżka_12" data-name="&lt;ścieżka&gt;" class="cls-2" points="13.05 21.46 12.25 20.67 7.45 20.67 7.45 21.46 13.05 21.46"/><path id="_ścieżka_13" data-name="&lt;ścieżka&gt;" class="cls-2" d="M31.77,23.66h0l-.05-.08Z"/><path id="_ścieżka_14" data-name="&lt;ścieżka&gt;" class="cls-2" d="M31.56,23.31l-.19-.26Z"/><path id="_ścieżka_15" data-name="&lt;ścieżka&gt;" class="cls-2" d="M25.77,32.5l-.31,0-.3-.07-.27-.07-.28-.1-.27-.1L24.08,32l-.27-.13-.16-.09h-2v.79h4.45l.12,0,.41,0-.59,0Z"/><path id="_ścieżka_16" data-name="&lt;ścieżka&gt;" class="cls-2" d="M31.22,22.84c-.12-.15-.26-.3-.39-.44C31,22.55,31.09,22.69,31.22,22.84Z"/><rect id="_ścieżka_17" data-name="&lt;ścieżka&gt;" class="cls-2" x="14.67" y="31.77" width="6.17" height="0.79"/><polygon id="_ścieżka_18" data-name="&lt;ścieżka&gt;" class="cls-2" points="21.64 31.77 21.64 30.05 20.84 29.25 20.84 31.77 21.64 31.77"/><rect id="_ścieżka_19" data-name="&lt;ścieżka&gt;" class="cls-2" x="20.84" y="31.77" width="0.79" height="0.79"/><polygon id="_ścieżka_20" data-name="&lt;ścieżka&gt;" class="cls-2" points="13.96 22.38 13.88 22.29 13.88 31.77 14.67 31.77 14.67 23.09 13.96 22.38"/><rect id="_ścieżka_21" data-name="&lt;ścieżka&gt;" class="cls-2" x="13.88" y="31.77" width="0.79" height="0.79"/><rect id="_ścieżka_22" data-name="&lt;ścieżka&gt;" class="cls-2" x="6.65" y="21.46" width="0.79" height="10.31"/><rect id="_ścieżka_23" data-name="&lt;ścieżka&gt;" class="cls-2" x="6.65" y="31.77" width="0.79" height="0.79"/><rect id="_ścieżka_24" data-name="&lt;ścieżka&gt;" class="cls-2" x="6.65" y="20.67" width="0.79" height="0.79"/><path id="_ścieżka_25" data-name="&lt;ścieżka&gt;" class="cls-2" d="M32,0H21.19a.53.53,0,0,0-.53.53V6.65h.79V.79H31.77V6.65h.79V.53A.53.53,0,0,0,32,0Z"/><polygon id="_ścieżka_26" data-name="&lt;ścieżka&gt;" class="cls-2" points="21.46 7.45 20.67 7.45 20.67 12.25 21.46 13.05 21.46 7.45"/><rect id="_ścieżka_27" data-name="&lt;ścieżka&gt;" class="cls-2" x="31.77" y="14.67" width="0.79" height="6.17"/><rect id="_ścieżka_28" data-name="&lt;ścieżka&gt;" class="cls-2" x="31.77" y="7.45" width="0.79" height="6.43"/><path id="_ścieżka_29" data-name="&lt;ścieżka&gt;" class="cls-2" d="M30.39,31.22h0q.22-.18.42-.38C30.68,31,30.54,31.09,30.39,31.22Z"/><path id="_ścieżka_30" data-name="&lt;ścieżka&gt;" class="cls-2" d="M32,29.15l.11-.22v0Z"/><path id="_ścieżka_31" data-name="&lt;ścieżka&gt;" class="cls-2" d="M23.06,31.37l.26.19Z"/><path id="_ścieżka_32" data-name="&lt;ścieżka&gt;" class="cls-2" d="M22.41,30.82q.21.21.44.39C22.69,31.09,22.55,31,22.41,30.82Z"/><path id="_ścieżka_33" data-name="&lt;ścieżka&gt;" class="cls-2" d="M31.77,23.66h0a5.94,5.94,0,0,1,.79,3c0-.14,0-.27,0-.41a.52.52,0,0,0,0-.12V21.64h-.79Z"/><path id="_ścieżka_34" data-name="&lt;ścieżka&gt;" class="cls-2" d="M32.53,27.2c0,.09,0,.18,0,.26C32.51,27.38,32.53,27.29,32.53,27.2Z"/><path id="_ścieżka_35" data-name="&lt;ścieżka&gt;" class="cls-2" d="M24.08,32l.26.12Z"/><path id="_ścieżka_36" data-name="&lt;ścieżka&gt;" class="cls-2" d="M31.37,30.17l.19-.26Z"/><path id="_ścieżka_37" data-name="&lt;ścieżka&gt;" class="cls-2" d="M31.72,29.66l.14-.24Z"/><path id="_ścieżka_38" data-name="&lt;ścieżka&gt;" class="cls-2" d="M32.31,28.34c0,.1-.07.19-.1.28C32.24,28.53,32.28,28.44,32.31,28.34Z"/><path id="_ścieżka_39" data-name="&lt;ścieżka&gt;" class="cls-2" d="M27.46,32.5l-.26,0Z"/><path id="_ścieżka_40" data-name="&lt;ścieżka&gt;" class="cls-2" d="M29.15,32l-.26.12Z"/><path id="_ścieżka_41" data-name="&lt;ścieżka&gt;" class="cls-2" d="M32.45,27.78c0,.1,0,.2-.07.3C32.4,28,32.43,27.88,32.45,27.78Z"/><path id="_ścieżka_42" data-name="&lt;ścieżka&gt;" class="cls-2" d="M28.63,32.21l-.28.1Z"/><path id="_ścieżka_43" data-name="&lt;ścieżka&gt;" class="cls-2" d="M28.07,32.38l-.3.07Z"/><path id="_ścieżka_44" data-name="&lt;ścieżka&gt;" class="cls-2" d="M29.92,31.56l.26-.19Z"/><path id="_ścieżka_45" data-name="&lt;ścieżka&gt;" class="cls-2" d="M25.77,32.5l.26,0Z"/><path id="_ścieżka_46" data-name="&lt;ścieżka&gt;" class="cls-2" d="M23.81,31.86l-.24-.14.08.05Z"/><path id="_ścieżka_47" data-name="&lt;ścieżka&gt;" class="cls-2" d="M25.16,32.38l.3.07Z"/><path id="_ścieżka_48" data-name="&lt;ścieżka&gt;" class="cls-2" d="M30.82,30.82c.14-.14.27-.28.39-.44C31.09,30.54,31,30.68,30.82,30.82Z"/><path id="_ścieżka_49" data-name="&lt;ścieżka&gt;" class="cls-2" d="M29.42,31.86l0,0,.21-.13Z"/><path id="_ścieżka_50" data-name="&lt;ścieżka&gt;" class="cls-2" d="M24.6,32.21l.28.1Z"/><polygon id="_ścieżka_51" data-name="&lt;ścieżka&gt;" class="cls-2" points="30.05 21.64 31.77 21.64 31.77 20.84 29.25 20.84 30.05 21.64"/><rect id="_ścieżka_52" data-name="&lt;ścieżka&gt;" class="cls-2" x="31.77" y="20.84" width="0.79" height="0.79"/><polygon id="_ścieżka_53" data-name="&lt;ścieżka&gt;" class="cls-2" points="22.38 13.96 23.09 14.67 31.77 14.67 31.77 13.88 22.29 13.88 22.38 13.96"/><rect id="_ścieżka_54" data-name="&lt;ścieżka&gt;" class="cls-2" x="31.77" y="13.88" width="0.79" height="0.79"/><rect id="_ścieżka_55" data-name="&lt;ścieżka&gt;" class="cls-2" x="21.46" y="6.65" width="10.31" height="0.79"/><rect id="_ścieżka_56" data-name="&lt;ścieżka&gt;" class="cls-2" x="20.67" y="6.65" width="0.79" height="0.79"/><rect id="_ścieżka_57" data-name="&lt;ścieżka&gt;" class="cls-2" x="31.77" y="6.65" width="0.79" height="0.79"/><path id="_ścieżka_58" data-name="&lt;ścieżka&gt;" class="cls-2" d="M4.71,12,12,4.71l4.14,4.14.56-.56L12.38,4a.53.53,0,0,0-.75,0L4,11.63a.53.53,0,0,0,0,.75l4.33,4.33.56-.56Z"/><polygon id="_ścieżka_59" data-name="&lt;ścieżka&gt;" class="cls-2" points="13.4 21.82 13.96 21.26 9.42 16.71 8.86 17.27 12.25 20.67 13.05 21.46 13.4 21.82"/><polygon id="_ścieżka_60" data-name="&lt;ścieżka&gt;" class="cls-2" points="26.18 18.89 26.74 18.33 23.09 14.67 22.38 13.96 21.82 14.53 26.18 18.89"/><polygon id="_ścieżka_61" data-name="&lt;ścieżka&gt;" class="cls-2" points="21.26 13.96 21.82 13.4 21.46 13.05 20.67 12.25 17.27 8.86 16.71 9.42 21.26 13.96"/><path id="_ścieżka_62" data-name="&lt;ścieżka&gt;" class="cls-2" d="M31.77,23.66l-.05-.09-.16-.26-.19-.26-.16-.21c-.12-.15-.25-.3-.39-.44l-.3-.28-.08-.1-.4-.4-.79-.79-2-2-.56.56,3.12,3.12,0,.08.09.08.26.24A5.16,5.16,0,0,1,23,30.26L22.73,30l-.08-.09-.08,0-3.12-3.12-.56.56,2,2,.79.79.4.4.1.08.28.3c.14.14.29.27.44.39l.21.16.26.19.26.16.24.14.27.13.26.12.27.1.28.1.27.07.3.07.31,0,.26,0,.59,0,.59,0,.26,0,.31,0,.3-.07.27-.07.28-.1.27-.1.26-.12.27-.13.24-.14.26-.16.26-.19.21-.16c.15-.12.3-.25.44-.39s.27-.29.39-.44l.16-.21.19-.26.16-.26.14-.24.13-.27.12-.26c0-.09.07-.18.1-.27s.07-.19.1-.28,0-.18.07-.27.05-.2.07-.3,0-.21,0-.31,0-.17,0-.26,0-.39,0-.59A5.94,5.94,0,0,0,31.77,23.66Z"/><polygon id="_ścieżka_63" data-name="&lt;ścieżka&gt;" class="cls-2" points="14.53 21.82 13.96 22.38 14.67 23.09 18.33 26.74 18.89 26.18 14.53 21.82"/><path id="_ścieżka_64" data-name="&lt;ścieżka&gt;" class="cls-2" d="M28.11,25.17a2.11,2.11,0,0,1-.22,2.72A2.11,2.11,0,0,0,28.11,25.17Z"/><path id="_ścieżka_65" data-name="&lt;ścieżka&gt;" class="cls-2" d="M24.9,24.9a2.11,2.11,0,0,1,1.5-.62,2.12,2.12,0,0,0-2,2.91A2.12,2.12,0,0,1,24.9,24.9Z"/><path id="_ścieżka_66" data-name="&lt;ścieżka&gt;" class="cls-2" d="M26.4,24.28a2.11,2.11,0,0,1,1.16.35A2.11,2.11,0,0,0,26.4,24.28Z"/><rect id="_ścieżka_67" data-name="&lt;ścieżka&gt;" class="cls-2" x="17.66" y="22.42" width="10.31" height="0.79" transform="translate(-9.45 22.81) rotate(-45)"/><rect id="_ścieżka_68" data-name="&lt;ścieżka&gt;" class="cls-2" x="26.34" y="18.49" width="0.79" height="0.79" transform="translate(-5.52 24.44) rotate(-45)"/><rect id="_ścieżka_69" data-name="&lt;ścieżka&gt;" class="cls-2" x="18.49" y="26.34" width="0.79" height="0.79" transform="translate(-13.38 21.19) rotate(-45)"/><rect id="_ścieżka_70" data-name="&lt;ścieżka&gt;" class="cls-2" x="12.73" y="17.49" width="10.31" height="0.79" transform="translate(-7.41 17.89) rotate(-45)"/><polygon id="_ścieżka_71" data-name="&lt;ścieżka&gt;" class="cls-2" points="21.82 14.53 22.38 13.96 22.29 13.88 21.82 13.4 21.26 13.96 21.82 14.53"/><polygon id="_ścieżka_72" data-name="&lt;ścieżka&gt;" class="cls-2" points="13.96 22.38 14.53 21.82 13.96 21.26 13.4 21.82 13.88 22.29 13.96 22.38"/><rect id="_ścieżka_73" data-name="&lt;ścieżka&gt;" class="cls-2" x="7.63" y="12.38" width="10.31" height="0.79" transform="translate(-5.29 12.78) rotate(-45)"/><rect id="_ścieżka_74" data-name="&lt;ścieżka&gt;" class="cls-2" x="8.46" y="16.31" width="0.79" height="0.79" transform="translate(-9.22 11.15) rotate(-45)"/><rect id="_ścieżka_75" data-name="&lt;ścieżka&gt;" class="cls-2" x="16.31" y="8.46" width="0.79" height="0.79" transform="translate(-1.37 14.41) rotate(-45)"/></g><g id="_grupa_2" data-name="&lt;grupa&gt;"><g id="_grupa_3" data-name="&lt;grupa&gt;"><path id="_ścieżka_76" data-name="&lt;ścieżka&gt;" class="cls-4" d="M34.58,42.8A9.81,9.81,0,1,1,44.39,33,9.82,9.82,0,0,1,34.58,42.8Z"/><g id="_grupa_4" data-name="&lt;grupa&gt;"><path id="_ścieżka_złożona_" data-name="&lt;ścieżka złożona&gt;" class="cls-2" d="M34.58,23.62A9.37,9.37,0,1,1,25.21,33a9.38,9.38,0,0,1,9.37-9.37m0-.87A10.24,10.24,0,0,0,24.34,33h0a10.24,10.24,0,0,0,20.48,0h0A10.24,10.24,0,0,0,34.58,22.75Z"/></g></g></g><circle id="_ścieżka_77" data-name="&lt;ścieżka&gt;" class="cls-5" cx="35.83" cy="34.1" r="9.81"/><path class="cls-2" d="M29.92,33l2.18-2.5a.43.43,0,1,0-.65-.58L29,32.67a.44.44,0,0,0,0,.58L31.45,36a.45.45,0,0,0,.32.14.41.41,0,0,0,.29-.11.38.38,0,0,0,.14-.31.54.54,0,0,0-.11-.32Z"/><path class="cls-2" d="M37.72,29.88a.38.38,0,0,0-.31-.14.54.54,0,0,0-.32.11.43.43,0,0,0,0,.61l2.2,2.5-2.18,2.5a.5.5,0,0,0-.11.32.44.44,0,0,0,.14.31.41.41,0,0,0,.29.11.42.42,0,0,0,.32-.14l2.43-2.79a.44.44,0,0,0,0-.58Z"/><path class="cls-2" d="M35.27,29.05a.45.45,0,0,0-.52.34l-1.39,7a.45.45,0,0,0,.34.52h.09a.43.43,0,0,0,.43-.36l1.39-7a.42.42,0,0,0-.34-.5Z"/></g></g></g></svg>