<svg xmlns="http://www.w3.org/2000/svg" viewBox="0 0 32.21 35.18"><defs><style>.cls-1{isolation:isolate;}.cls-2{fill:#2f302f;}.cls-3{mix-blend-mode:multiply;}.cls-4{fill:#d5dee4;}.cls-5{fill:#fe8c2b;}.cls-6{fill:#fff;}.cls-7{fill:#333;}</style></defs><title>documentation</title><g class="cls-1"><g id="Warstwa_2" data-name="Warstwa 2"><g id="_2" data-name="2"><path class="cls-2" d="M28.92,33.28H1.51A1.51,1.51,0,0,1,0,31.78V1.51A1.51,1.51,0,0,1,1.51,0H28.92a1.51,1.51,0,0,1,1.51,1.51V31.78A1.51,1.51,0,0,1,28.92,33.28ZM1.51,1A.51.51,0,0,0,1,1.51V31.78a.51.51,0,0,0,.51.51H28.92a.51.51,0,0,0,.51-.51V1.51A.51.51,0,0,0,28.92,1Z"/><g class="cls-3"><rect class="cls-4" x="17.51" y="2.89" width="14.7" height="32.29" rx="1.01" ry="1.01"/></g><rect class="cls-2" x="21.11" y="5.76" width="5.5" height="1"/><rect class="cls-2" x="21.11" y="8.02" width="5.5" height="1"/><rect class="cls-2" x="21.11" y="10.29" width="3.4" height="1"/><rect class="cls-2" x="21.11" y="16.04" width="5.5" height="1"/><rect class="cls-2" x="21.11" y="18.31" width="3.4" height="1"/><circle class="cls-5" cx="19.35" cy="6.14" r="0.84"/><circle class="cls-5" cx="19.35" cy="16.54" r="0.84"/><rect class="cls-6" x="4.31" y="4.32" width="9.98" height="15.3" rx="1.01" ry="1.01"/><path class="cls-7" d="M13.29,20.12h-2v-1h2a.5.5,0,0,0,.38-.17l.74.67A1.51,1.51,0,0,1,13.29,20.12Zm-3,0h-2v-1h2Zm-3,0h-2l0-.5,0-.5h2ZM4,19.4a1.5,1.5,0,0,1-.22-.78V17.17h1v1.45a.51.51,0,0,0,.08.26Zm10.76-1h-1v-2h1Zm-10-2.19h-1v-2h1Zm10-.81h-1v-2h1Zm-10-2.19h-1v-2h1Zm10-.81h-1v-2h1Zm-10-2.19h-1v-2h1Zm10-.81h-1v-2h1Zm-10-2.19h-1V5.33a1.52,1.52,0,0,1,0-.24l1,.17Zm10-.81h-1v-1a.51.51,0,0,0-.22-.42l.57-.82a1.51,1.51,0,0,1,.65,1.24ZM5.12,4.86,4.71,4a1.48,1.48,0,0,1,.61-.13H6.9v1H5.32A.49.49,0,0,0,5.12,4.86Zm7.78,0h-2v-1h2Zm-3,0h-2v-1h2Z"/><circle class="cls-5" cx="4.31" cy="4.32" r="2.18"/></g></g></g></svg>