<svg xmlns="http://www.w3.org/2000/svg" height="24px" width="24px" viewBox="0 0 272.1 190.5"><defs><style>.cls-1{fill:#00a1e0;}.cls-2{fill:#fff;}</style></defs><title>salesforce</title><g id="Warstwa_2" data-name="Warstwa 2"><g id="Layer_1" data-name="Layer 1"><path class="cls-1" d="M113.2,20.7a47.76,47.76,0,0,1,76.5,10.1,58.86,58.86,0,0,1,23.7-5c32.4,0,58.7,26.5,58.7,59.2s-26.3,59.2-58.7,59.2a55.68,55.68,0,0,1-11.6-1.2,42.9,42.9,0,0,1-37.4,22,44,44,0,0,1-18.8-4.3,48.9,48.9,0,0,1-90.9-2.2,47.3,47.3,0,0,1-9.3,1C20.3,159.5,0,138.9,0,113.6A46,46,0,0,1,22.7,73.8a52.22,52.22,0,0,1-4.3-21,52.85,52.85,0,0,1,94.8-32.1Z"/><path class="cls-2" d="M39.3,98.8c-.2.4.1.5.1.6a8.27,8.27,0,0,0,1.6.9,16.3,16.3,0,0,0,8.1,1.9c5.6,0,9.1-3,9.1-7.7v-.1c0-4.4-3.9-6-7.6-7.2l-.5-.2c-2.8-.9-5.2-1.7-5.2-3.5v-.1c0-1.6,1.4-2.7,3.6-2.7a16.2,16.2,0,0,1,7.1,1.8s.5.3.7-.2c.1-.3,1-2.8,1.1-3.1a.49.49,0,0,0-.3-.6,15.59,15.59,0,0,0-8-2.1h-.6c-5.1,0-8.7,3.1-8.7,7.5v.1c0,4.7,3.9,6.2,7.6,7.2l.6.2c2.7.8,5,1.5,5,3.4V95c0,1.7-1.5,3-3.9,3a13.08,13.08,0,0,1-7.2-2.1,7,7,0,0,1-.9-.6c-.2-.1-.6-.3-.7.3Z"/><path class="cls-2" d="M121.1,98.8c-.2.4.1.5.1.6a8.27,8.27,0,0,0,1.6.9,16.3,16.3,0,0,0,8.1,1.9c5.6,0,9.1-3,9.1-7.7v-.1c0-4.4-3.9-6-7.6-7.2l-.5-.2c-2.8-.9-5.2-1.7-5.2-3.5v-.1c0-1.6,1.4-2.7,3.6-2.7a16.2,16.2,0,0,1,7.1,1.8s.5.3.7-.2c.1-.3,1-2.8,1.1-3.1a.49.49,0,0,0-.3-.6,15.59,15.59,0,0,0-8-2.1h-.6c-5.1,0-8.7,3.1-8.7,7.5v.1c0,4.7,3.9,6.2,7.6,7.2l.6.2c2.7.8,5,1.5,5,3.4V95c0,1.7-1.5,3-3.9,3a13.08,13.08,0,0,1-7.2-2.1,7,7,0,0,1-.9-.6.44.44,0,0,0-.7.3Z"/><path class="cls-2" d="M181.5,84.4a12.69,12.69,0,0,0-2.1-4,10.67,10.67,0,0,0-3.6-2.7,13,13,0,0,0-10,0,12.16,12.16,0,0,0-3.6,2.7,10.94,10.94,0,0,0-2.1,4,18.21,18.21,0,0,0,0,10,12.69,12.69,0,0,0,2.1,4,10.67,10.67,0,0,0,3.6,2.7,12.72,12.72,0,0,0,5,1,11.17,11.17,0,0,0,5-1,10.67,10.67,0,0,0,3.6-2.7,10.94,10.94,0,0,0,2.1-4,18.21,18.21,0,0,0,0-10m-4.6,5a11.29,11.29,0,0,1-1.5,6.3,5,5,0,0,1-4.5,2.2,4.9,4.9,0,0,1-4.5-2.2,11.29,11.29,0,0,1-1.5-6.3,11.29,11.29,0,0,1,1.5-6.3,4.9,4.9,0,0,1,4.5-2.2,4.8,4.8,0,0,1,4.5,2.2,11.29,11.29,0,0,1,1.5,6.3"/><path class="cls-2" d="M219.8,97.2c-.2-.5-.6-.3-.6-.3a8,8,0,0,1-2.2.6,19.66,19.66,0,0,1-2.6.2,7.09,7.09,0,0,1-5.3-2c-1.3-1.3-2-3.5-2-6.4a9.43,9.43,0,0,1,1.8-6.1,6.13,6.13,0,0,1,5.2-2.3,14.87,14.87,0,0,1,4.9.7s.4.2.5-.3c.4-1.1.7-1.9,1.1-3.2.1-.4-.2-.5-.3-.5a27,27,0,0,0-3.1-.8,18.87,18.87,0,0,0-3.5-.2,12.07,12.07,0,0,0-5.2,1,11.87,11.87,0,0,0-3.8,2.7,11.33,11.33,0,0,0-2.3,4,15.88,15.88,0,0,0-.8,5c0,3.9,1,7,3.1,9.3s5.2,3.5,9.2,3.5a18.94,18.94,0,0,0,6.6-1.2.56.56,0,0,0,.2-.6Z"/><path class="cls-2" d="M243.6,83.5a10.58,10.58,0,0,0-2-3.7,8.62,8.62,0,0,0-3-2.3,10.63,10.63,0,0,0-4.5-.9,11.78,11.78,0,0,0-5.2,1,9.22,9.22,0,0,0-3.6,2.8,10,10,0,0,0-2.1,4.1,16.34,16.34,0,0,0-.7,5,15.91,15.91,0,0,0,.7,5,10,10,0,0,0,2.3,4,10.29,10.29,0,0,0,4,2.6,16.24,16.24,0,0,0,5.7.9c4.6,0,7-1,7.9-1.6.2-.1.3-.3.1-.8l-1-2.9a.54.54,0,0,0-.6-.3,15.26,15.26,0,0,1-6.5,1.2,7.2,7.2,0,0,1-5.4-1.9c-1.2-1.2-1.7-2.9-1.8-5.2h15.8a.53.53,0,0,0,.5-.4A21.4,21.4,0,0,0,243.6,83.5Zm-15.7,3.3a8.14,8.14,0,0,1,1.3-3.7,5,5,0,0,1,4.5-2.3,4.81,4.81,0,0,1,4.4,2.3,7.28,7.28,0,0,1,1,3.7Z"/><path class="cls-2" d="M117.3,83.5a10.58,10.58,0,0,0-2-3.7,8.62,8.62,0,0,0-3-2.3,10.63,10.63,0,0,0-4.5-.9,11.78,11.78,0,0,0-5.2,1A9.22,9.22,0,0,0,99,80.4a10,10,0,0,0-2.1,4.1,16.34,16.34,0,0,0-.7,5,15.91,15.91,0,0,0,.7,5,10,10,0,0,0,2.3,4,10.29,10.29,0,0,0,4,2.6,16.24,16.24,0,0,0,5.7.9c4.6,0,7-1,7.9-1.6.2-.1.3-.3.1-.8l-1-2.9a.54.54,0,0,0-.6-.3,15.26,15.26,0,0,1-6.5,1.2,7.2,7.2,0,0,1-5.4-1.9c-1.2-1.2-1.7-2.9-1.8-5.2h15.8a.53.53,0,0,0,.5-.4A21.4,21.4,0,0,0,117.3,83.5Zm-15.7,3.3a8.14,8.14,0,0,1,1.3-3.7,5,5,0,0,1,4.5-2.3,4.81,4.81,0,0,1,4.4,2.3,8.43,8.43,0,0,1,1,3.7Z"/><path class="cls-2" d="M73.8,86c-.6,0-1.5-.1-2.5-.1a16,16,0,0,0-3.9.5,9.88,9.88,0,0,0-3.3,1.5,8.15,8.15,0,0,0-2.3,2.6,7.08,7.08,0,0,0-.8,3.6,8,8,0,0,0,.7,3.6,7.21,7.21,0,0,0,2.1,2.5,10.36,10.36,0,0,0,3.2,1.4,17.62,17.62,0,0,0,4.2.4,25.92,25.92,0,0,0,4.8-.4c1.5-.3,3.4-.6,4-.8a11,11,0,0,0,1.1-.3.53.53,0,0,0,.4-.5V85.6c0-3.2-.8-5.5-2.5-7a11,11,0,0,0-7.2-2.2,28.48,28.48,0,0,0-4.2.4,16.58,16.58,0,0,0-4.9,1.8.45.45,0,0,0-.1.6l1.1,3a.4.4,0,0,0,.5.3.77.77,0,0,0,.3-.1,16.9,16.9,0,0,1,6.9-1.6,6.25,6.25,0,0,1,3.9,1c.9.7,1.3,1.7,1.3,3.8v.7C75,86.2,73.8,86,73.8,86ZM67.5,97.1a3.61,3.61,0,0,1-.9-.9,4.06,4.06,0,0,1-.5-2.1A3.68,3.68,0,0,1,67.5,91s1.4-1.2,4.6-1.1a24.62,24.62,0,0,1,4.3.4v7.2h0s-2,.4-4.3.6C68.9,98.2,67.5,97.1,67.5,97.1Z"/><path class="cls-2" d="M201,77.9a.5.5,0,0,0-.2-.6,10.86,10.86,0,0,0-2.6-.4,7.55,7.55,0,0,0-4.1.7,6.83,6.83,0,0,0-2.7,2V77.7a.47.47,0,0,0-.5-.5h-4a.47.47,0,0,0-.5.5v23.5a.47.47,0,0,0,.5.5H191a.47.47,0,0,0,.5-.5V89.4a14.73,14.73,0,0,1,.5-4.1,4.75,4.75,0,0,1,1.4-2.3,4.36,4.36,0,0,1,1.9-1.2,8.18,8.18,0,0,1,2.1-.3,9.2,9.2,0,0,1,1.7.2.68.68,0,0,0,.6-.4A31.87,31.87,0,0,0,201,77.9Z"/><path class="cls-2" d="M162.1,67a7.49,7.49,0,0,0-1.6-.4,12.48,12.48,0,0,0-2.1-.2,9,9,0,0,0-6.7,2.4c-1.6,1.6-2.6,4-3.2,7.2l-.2,1.1h-3.6a.55.55,0,0,0-.5.5l-.6,3.3c0,.3.1.5.5.5h3.5l-3.5,19.7a39.13,39.13,0,0,1-.9,3.9,6.41,6.41,0,0,1-1.1,2.2,3,3,0,0,1-1.4,1.1,5.41,5.41,0,0,1-1.9.3c-.4,0-.9-.1-1.3-.1a9.45,9.45,0,0,1-.9-.3s-.4-.2-.6.3c-.1.3-1.1,2.9-1.2,3.2s0,.6.2.6a5.73,5.73,0,0,0,1.4.4,9.75,9.75,0,0,0,2.3.2,11.42,11.42,0,0,0,3.9-.6,7.22,7.22,0,0,0,2.9-2,10,10,0,0,0,2-3.5,36.13,36.13,0,0,0,1.4-5.3l3.6-20.1h5.2a.55.55,0,0,0,.5-.5l.6-3.3c0-.3-.1-.5-.5-.5h-5a28.47,28.47,0,0,1,.8-3.6,4.18,4.18,0,0,1,1.1-1.7,2.58,2.58,0,0,1,1.3-.8,4.68,4.68,0,0,1,1.7-.2c.5,0,.9.1,1.3.1s.7.2.8.2c.5.2.6,0,.7-.2l1.2-3.3C162.5,67.2,162.2,67.1,162.1,67Z"/><path class="cls-2" d="M91.6,101.1a.47.47,0,0,1-.5.5H86.9a.47.47,0,0,1-.5-.5V67.5a.47.47,0,0,1,.5-.5h4.2a.47.47,0,0,1,.5.5Z"/></g></g></svg>
