<?xml version="1.0" encoding="utf-8"?>
<!-- Generator: Adobe Illustrator 21.1.0, SVG Export Plug-In . SVG Version: 6.00 Build 0)  -->
<svg version="1.1" xmlns="http://www.w3.org/2000/svg" xmlns:xlink="http://www.w3.org/1999/xlink" x="0px" y="0px"
	 viewBox="0 0 472.2 197" style="enable-background:new 0 0 472.2 197;" xml:space="preserve">
<style type="text/css">
	.st0{fill:#64B1BC;}
	.st1{fill:#4296B4;}
	.st2{fill:#276092;}
	.st3{fill:#1D4F90;}
	.st4{fill:#83C8BC;}
</style>
<g id="Videa_Logo">
	<path class="st0" d="M157.2,140.5v-84H171v84H157.2z"/>
	<path class="st1" d="M181.3,122.6V56.5h27.6c23.7,0,43.4,9,43.4,42c0,32.4-21.2,42.1-45,42.1h-8
		C189.4,140.5,181.3,132.5,181.3,122.6z M195.1,122.2c0,3.3,2.7,6,6,6h8.3c18.4,0,28.9-8.2,28.9-29.7c0-21.4-10.1-29.1-30.2-29.1
		h-13V122.2z"/>
	<path class="st2" d="M258.5,122.6V56.5H315v12.8h-42.8V92H315v12.2h-42.8v18c0,3.3,2.7,6,6,6H315v12.4h-38.5
		C266.5,140.5,258.5,132.5,258.5,122.6z"/>
	<path class="st3" d="M411.7,140.5h4l-70.1-81.1c-1.6-1.9-4-3-6.5-3h0h-13.7v84h13.7v-16.4h44.7l5.3,6.1
		C394.8,136.7,403,140.5,411.7,140.5z M339.1,112.2V72.3l34.4,39.8H339.1z"/>
	<path class="st4" d="M133.2,124.7l-50-57.8c-5.7-6.6-13.9-10.3-22.6-10.3h-4l70.1,81.1c1.6,1.9,4,3,6.5,3h0h13.7v-84h-13.7V124.7z"
		/>
	<g>
		<path class="st3" d="M423.4,140.5v-7.6H421v-1.3h6.2v1.3h-2.4v7.6H423.4z"/>
		<path class="st3" d="M428.2,140.5v-8.9h1.8l2.1,6.6l2.2-6.6h1.8v8.9h-1.3v-6.7l-2.1,6.7h-1l-2.1-6.7v6.7H428.2z"/>
	</g>
</g>
<g id="Guides">
</g>
</svg>
