<?xml version="1.0" encoding="utf-8"?>
<!-- Generator: Adobe Illustrator 18.0.0, SVG Export Plug-In . SVG Version: 6.00 Build 0)  -->
<!DOCTYPE svg PUBLIC "-//W3C//DTD SVG 1.1//EN" "http://www.w3.org/Graphics/SVG/1.1/DTD/svg11.dtd">
<svg version="1.1" id="Layer_1" xmlns="http://www.w3.org/2000/svg" xmlns:xlink="http://www.w3.org/1999/xlink" x="0px" y="0px"
	 viewBox="0 0 466.4 155" enable-background="new 0 0 466.4 155" xml:space="preserve">
<g>
	<path fill="#818285" d="M373,155v-28.1h4.6V155H373z"/>
	<path fill="#818285" d="M381,149v-22.1h9.2c7.9,0,14.5,3,14.5,14.1c0,10.9-7.1,14.1-15.1,14.1H387C383.7,155,381,152.3,381,149z
		 M385.6,148.9c0,1.1,0.9,2,2,2h2.8c6.2,0,9.7-2.7,9.7-10c0-7.2-3.4-9.8-10.1-9.8h-4.4V148.9z"/>
	<path fill="#818285" d="M406.9,149v-22.1h18.9v4.3h-14.3v7.6h14.3v4.1h-14.3v6c0,1.1,0.9,2,2,2h12.3v4.1h-12.9
		C409.6,155,406.9,152.3,406.9,149z"/>
	<path fill="#818285" d="M458.2,155h1.3l-23.5-27.2c-0.5-0.6-1.3-1-2.2-1h0h-4.6V155h4.6v-5.5h15l1.8,2
		C452.5,153.8,455.3,155,458.2,155z M433.9,145.5v-13.3l11.5,13.3H433.9z"/>
	<path fill="#818285" d="M364.9,149.7l-16.8-19.4c-1.9-2.2-4.7-3.5-7.6-3.5h-1.3l25.7,28.1c0.5,0.6-0.9,0,0,0h0h4.6v-28.1h-4.6
		V149.7z"/>
	<g>
		<path fill="#818285" d="M462.1,155v-2.5h-0.8V152h2.1v0.4h-0.8v2.5H462.1z"/>
		<path fill="#818285" d="M463.7,155v-3h0.6l0.7,2.2l0.7-2.2h0.6v3h-0.4v-2.2l-0.7,2.2h-0.3l-0.7-2.2v2.2H463.7z"/>
	</g>
</g>
<g>
	<path fill="#010101" d="M194.4,27.5v55.8c0,9.7-3.2,17.2-9.7,22.6c-6.5,5.3-14.9,8-25.3,8c-10.6,0-19.1-2.7-25.5-8
		c-6.5-5.3-9.7-12.9-9.7-22.6V27.5H144v55.8c0,5.2,1.3,9.1,4,11.6c2.7,2.5,6.5,3.8,11.4,3.8c4.9,0,8.6-1.2,11.3-3.7
		c2.6-2.5,3.9-6.4,3.9-11.6V27.5H194.4z"/>
	<path fill="#010101" d="M231.4,56.2l14-28.7h22.8l-24.4,42.2l26.3,42.9h-24l-14.5-29.3l-14.5,29.3h-22.8l25-42.9L195,27.5h22.6
		L231.4,56.2z"/>
	<path fill="#010101" d="M281,106.7h42.1v6H274V27.5h7V106.7z"/>
	<path fill="#010101" d="M379.1,88.9h-39l-8.8,23.7H324l32.3-85.1h6.6l32.1,85.1h-7.3L379.1,88.9z M342.4,82.6h34.4l-17-46.1h-0.4
		L342.4,82.6z"/>
	<path fill="#010101" d="M400.9,112.6V27.5h24.8c8.8,0,15.7,1.9,20.7,5.6c4.9,3.7,7.4,9.3,7.4,16.8c0,4.4-1.2,8.2-3.7,11.4
		c-2.5,3.2-5.8,5.5-10.1,6.7c5.2,0.9,9.4,3.4,12.6,7.3c3.2,3.9,4.9,8.5,4.9,13.6c0,7.6-2.5,13.4-7.4,17.5
		c-4.9,4.1-11.5,6.1-19.8,6.1H400.9z M407.9,65.7h19.6c6.2,0,10.9-1.4,14.3-4.1c3.4-2.7,5.1-6.7,5.1-12c0-5.4-1.8-9.4-5.4-12.1
		c-3.6-2.7-8.8-4.1-15.7-4.1h-17.9V65.7z M407.9,71.6v35h22.5c6.3,0,11.2-1.5,14.8-4.6c3.6-3.1,5.4-7.4,5.4-13
		c0-5.1-1.6-9.3-4.9-12.5s-8-4.9-14.2-4.9H407.9z"/>
</g>
<g>
	<circle fill="#010101" cx="48.2" cy="18.6" r="18.6"/>
	<path fill="#64B1BC" d="M24.9,49.5c-3.1-6.2-3.2-12.8-3.3-13.1V10.7H0v25.7c0,1.1,0.1,11.3,5.1,21.8c2.3,5,5.4,9.2,9,12.6
		c7.4-7,17.4-10.8,29.1-10.8C34.3,60,28.5,56.6,24.9,49.5z"/>
	<path fill="#2BACE2" d="M43.2,81.7C43.2,81.7,43.2,81.7,43.2,81.7C43.2,81.7,43.2,81.7,43.2,81.7l8.8,0c0,0,0,0,0,0c0,0,0,0,0,0
		H43.2z"/>
	<path fill="#2BACE2" d="M52.1,60C52.1,60,52.1,60,52.1,60C52.1,60,52.1,60,52.1,60l-8.8,0c0,0,0,0,0,0c0,0,0,0,0,0H52.1z"/>
	<path fill="#64B1BC" d="M70.4,92.2c3.1,6.2,3.2,12.8,3.3,13.1V131h21.7v-25.7c0-1.1-0.1-11.3-5.1-21.8c-2.3-5-5.4-9.2-9-12.6
		c-7.4,7-17.4,10.8-29.1,10.8C61,81.7,66.8,85,70.4,92.2z"/>
	<path fill="#682666" d="M73.7,10.7v25.7c0,0.1-0.1,6.5-3,12.6c-3.5,7.5-9.4,11-18.5,11c0,0,0,0,0,0h-8.8c0,0,0,0,0,0
		c-11.7,0-21.7,3.8-29.1,10.8c-3.6,3.4-6.7,7.6-9,12.6C0.1,93.9,0,104.1,0,105.3V131h21.7v-25.7c0-0.1,0.1-6.5,3-12.6
		c3.5-7.5,9.4-11,18.5-11c0,0,0,0,0,0h8.8c0,0,0,0,0,0c11.7,0,21.7-3.8,29.1-10.8c3.6-3.4,6.7-7.6,9-12.6
		c4.9-10.5,5.1-20.7,5.1-21.8V10.7H73.7z"/>
</g>
</svg>
